{"title":"Triple Dog 2010.480p.BRRip.H264.Feel-Free","uid":5995917,"size":1281645787,"categoryP":"video","categoryS":"movies","magnet":"?xt=urn:btih:befb01996ee74052d6120eba3c7612bb81c393bb&amp;dn=Triple+Dog+2010.480p.BRRip.H264.Feel-Free&amp;tr=udp%3A%2F%2Ftracker.openbittorrent.com%3A80&amp;tr=udp%3A%2F%2Fopen.demonii.com%3A1337&amp;tr=udp%3A%2F%2Ftracker.coppersurfer.tk%3A6969&amp;tr=udp%3A%2F%2Fexodus.desync.com%3A6969","seeders":0,"leechers":1,"uploader":"neon","files":-1,"time":1291022578,"description":"Genre:Drama | Thriller\nLanguage:English\n &lt;a href=&quot; http://www.imdb.com/title/tt1232838/&quot; rel=&quot;nofollow&quot; target=&quot;_NEW&quot;&gt; http://www.imdb.com/title/tt1232838/&lt;/a&gt;\nSource:720p.BluRay.x264-aAF\n &lt;a href=&quot;\nhttp://www.rapidhdd.com/images/749535vlcsnap-2010-11-29-08h00m35s60.png&quot; rel=&quot;nofollow&quot; target=&quot;_NEW&quot;&gt;\nhttp://www.rapidhdd.com/images/749535vlcsnap-2010-11-29-08h00m35s60.png&lt;/a&gt; &lt;a href=&quot;\nhttp://www.rapidhdd.com/images/410016vlcsnap-2010-11-29-08h00m57s18.png&quot; rel=&quot;nofollow&quot; target=&quot;_NEW&quot;&gt;\nhttp://www.rapidhdd.com/images/410016vlcsnap-2010-11-29-08h00m57s18.png&lt;/a&gt; &lt;a href=&quot;\nhttp://www.rapidhdd.com/images/331604vlcsnap-2010-11-29-08h02m16s38.png&quot; rel=&quot;nofollow&quot; target=&quot;_NEW&quot;&gt;\nhttp://www.rapidhdd.com/images/331604vlcsnap-2010-11-29-08h02m16s38.png&lt;/a&gt;\n &lt;a href=&quot;\nhttp://www.youtube.com/watch?v=p1M2KVEWlSs&amp;feature=player_embedded&quot; rel=&quot;nofollow&quot; target=&quot;_NEW&quot;&gt;\nhttp://www.youtube.com/watch?v=p1M2KVEWlSs&amp;feature=player_embedded&lt;/a&gt;\n\nGeneral\nComplete name :Triple.Dog.2010.480p.BRRip.H264.Feel-Free\nFormat : MPEG-4\nFormat profile : Base Media\nCodec ID : mp42\nFile size : 1.19 GiB\nDuration : 1h 32mn\nOverall bit rate : 1 853 Kbps\nVideo #1\nCodec ID : avc1\nCodec ID/Info : Advanced Video Coding\nDuration : 1h 32mn\nBit rate mode : Variable\nBit rate : 1 372 Kbps\nWidth : 720 pixels\nHeight : 384 pixels\nDisplay aspect ratio : 1.875\nFrame rate mode : Constant\nFrame rate : 23.976 fps\nResolution : 24 bits\nColorimetry : 4:2:0\nScan type : Progressive\nBits/(Pixel*Frame) : 0.207\nStream size : 903 MiB (74%)\nAudio #2\nID : 2\nFormat : AAC\nFormat/Info : Advanced Audio Codec\nFormat version : Version 4\nFormat profile : LC\nFormat settings, SBR : No\nCodec ID : 40\nDuration : 1h 32mn\nBit rate mode : Constant\nBit rate : 477 Kbps\nNominal bit rate : 480 Kbps\nChannel(s) : 6 channels\nChannel positions : Front: L C R, Rear: L R, LFE\nSampling rate : 48.0 KHz\nResolution : 16 bits\nStream size : 314 MiB (26%)\n\nPlot:\nOn the night of a sleepover, a group of teenage girls venture out in a competitive game of challenging dares. As the antics escalate, and the dares become more extreme, the girls unravel the truth behind a former student's rumored suicide.\n\n","torrent":{"xt":"urn:btih:befb01996ee74052d6120eba3c7612bb81c393bb","amp;dn":"Triple+Dog+2010.480p.BRRip.H264.Feel-Free","amp;tr":["udp%3A%2F%2Ftracker.openbittorrent.com%3A80","udp%3A%2F%2Fopen.demonii.com%3A1337","udp%3A%2F%2Ftracker.coppersurfer.tk%3A6969","udp%3A%2F%2Fexodus.desync.com%3A6969"],"infoHash":"befb01996ee74052d6120eba3c7612bb81c393bb","infoHashBuffer":{"type":"Buffer","data":[190,251,1,153,110,231,64,82,214,18,14,186,60,118,18,187,129,195,147,187]},"announce":[],"urlList":[]}}